<svg width="24" height="25" viewBox="0 0 24 25" fill="none" xmlns="http://www.w3.org/2000/svg">
<g id="icomoon-free:instagram" clip-path="url(#clip0_1638_89977)">
<path id="Vector" d="M21.75 0.5H2.25C1.0125 0.5 0 1.5125 0 2.75V22.25C0 23.4875 1.0125 24.5 2.25 24.5H21.75C22.9875 24.5 24 23.4875 24 22.25V2.75C24 1.5125 22.9875 0.5 21.75 0.5ZM16.5 4.25C16.5 3.8375 16.8375 3.5 17.25 3.5H20.25C20.6625 3.5 21 3.8375 21 4.25V7.25C21 7.6625 20.6625 8 20.25 8H17.25C17.0512 7.9996 16.8607 7.92046 16.7201 7.77989C16.5795 7.63933 16.5004 7.44879 16.5 7.25V4.25ZM12 8C13.1734 8.0303 14.2885 8.5177 15.1077 9.35831C15.9268 10.1989 16.3853 11.3263 16.3853 12.5C16.3853 13.6737 15.9268 14.8011 15.1077 15.6417C14.2885 16.4823 13.1734 16.9697 12 17C10.8266 16.9697 9.71152 16.4823 8.89234 15.6417C8.07315 14.8011 7.6147 13.6737 7.6147 12.5C7.6147 11.3263 8.07315 10.1989 8.89234 9.35831C9.71152 8.5177 10.8266 8.0303 12 8ZM21 20.75C21 21.1625 20.6625 21.5 20.25 21.5H3.75C3.55121 21.4996 3.36067 21.4205 3.22011 21.2799C3.07954 21.1393 3.0004 20.9488 3 20.75V11H4.65C4.42726 12.0898 4.44978 13.2156 4.71593 14.2956C4.98208 15.3757 5.48519 16.383 6.1888 17.2446C6.89241 18.1061 7.77889 18.8004 8.78399 19.2769C9.78909 19.7535 10.8876 20.0005 12 20C13.1124 20.0005 14.2109 19.7535 15.216 19.2769C16.2211 18.8004 17.1076 18.1061 17.8112 17.2446C18.5148 16.383 19.0179 15.3757 19.2841 14.2956C19.5502 13.2156 19.5727 12.0898 19.35 11H21V20.75Z" fill="#023527"/>
</g>
<defs>
<clipPath id="clip0_1638_89977">
<rect width="24" height="24" fill="white" transform="translate(0 0.5)"/>
</clipPath>
</defs>
</svg>
