<svg width="29" height="29" viewBox="0 0 29 29" fill="none" xmlns="http://www.w3.org/2000/svg">
<g id="Twitter - Dark" clip-path="url(#clip0_1638_89981)">
<path id="Vector" d="M9.12311 26.2814C20.0638 26.2814 26.0496 17.2149 26.0496 9.3549C26.0496 9.10002 26.0439 8.83947 26.0326 8.58459C27.197 7.7425 28.2019 6.69946 29 5.50447C27.9155 5.98696 26.7642 6.30207 25.5851 6.43904C26.8265 5.69492 27.7561 4.52593 28.2014 3.14879C27.0335 3.84091 25.7563 4.32914 24.4246 4.59256C23.5273 3.63912 22.3409 3.00783 21.0488 2.7963C19.7567 2.58476 18.4309 2.80476 17.2764 3.42227C16.1219 4.03978 15.203 5.02042 14.6617 6.21257C14.1205 7.40472 13.987 8.74198 14.2819 10.0176C11.9172 9.89893 9.60376 9.28463 7.49164 8.21452C5.37953 7.14441 3.51588 5.64239 2.0215 3.80582C1.26198 5.11532 1.02957 6.66489 1.3715 8.1396C1.71342 9.6143 2.60403 10.9035 3.86232 11.7451C2.91768 11.7151 1.99372 11.4608 1.1668 11.0031V11.0768C1.16595 12.451 1.64103 13.7831 2.51129 14.8467C3.38155 15.9102 4.59327 16.6396 5.94047 16.9108C5.0654 17.1502 4.14698 17.1851 3.25627 17.0127C3.63642 18.1946 4.37607 19.2282 5.37197 19.9695C6.36788 20.7107 7.57035 21.1225 8.81158 21.1475C6.70435 22.8027 4.10129 23.7006 1.42168 23.6963C0.946472 23.6956 0.471732 23.6665 0 23.6091C2.7222 25.3555 5.88885 26.2831 9.12311 26.2814Z" fill="#023527"/>
</g>
<defs>
<clipPath id="clip0_1638_89981">
<rect width="29" height="29" fill="white"/>
</clipPath>
</defs>
</svg>
